<?xml version="1.0" encoding="UTF-8"?>
<svg xmlns="http://www.w3.org/2000/svg" xmlns:xlink="http://www.w3.org/1999/xlink" width="854" height="480" viewBox="0 0 854 480">
<defs>
<g>
<g id="glyph-0-0">
<path d="M 5.746094 -2.785156 L 5.800781 -2.785156 L 5.800781 0 L 6.8125 0 L 6.8125 -7.707031 L 8.425781 -7.707031 L 8.425781 -8.558594 L -0.292969 -8.558594 L -0.292969 -7.707031 L 1.960938 -7.707031 C 2.304688 -7.398438 2.535156 -6.917969 2.535156 -6.441406 C 2.535156 -5.613281 1.839844 -5.171875 0.613281 -4.90625 C 0.828125 -2.960938 2.054688 -1.828125 3.640625 -1.828125 C 4.878906 -1.828125 5.507812 -2.464844 5.746094 -2.785156 Z M 1.773438 -4.441406 C 2.800781 -4.679688 3.558594 -5.359375 3.558594 -6.292969 C 3.558594 -6.878906 3.347656 -7.304688 3.027344 -7.652344 L 3.027344 -7.707031 L 5.8125 -7.707031 L 5.8125 -4.933594 C 5.8125 -3.535156 4.960938 -2.746094 3.785156 -2.746094 C 2.453125 -2.746094 1.878906 -3.71875 1.773438 -4.441406 Z "/>
</g>
<g id="glyph-0-1">
<path d="M 2.320312 0 L 2.320312 -7.707031 L 3.933594 -7.707031 L 3.933594 -8.558594 L 2.226562 -8.558594 L -0.667969 -12.132812 L -1.8125 -11.867188 L -0.71875 -10.613281 C -0.238281 -10.054688 0.652344 -9.121094 1.292969 -8.558594 L -0.292969 -8.558594 L -0.292969 -7.707031 L 1.320312 -7.707031 L 1.320312 0 Z "/>
</g>
<g id="glyph-0-2">
<rect x="0" y="0" width="0" height="0" mask="url(#mask-0)"/>
</g>
<g id="glyph-0-3">
<path d="M 5.105469 -7.707031 L 5.105469 0 L 6.105469 0 L 6.105469 -7.707031 L 7.71875 -7.707031 L 7.71875 -8.558594 L -0.292969 -8.558594 L -0.292969 -7.707031 L 1.679688 -7.707031 L 1.679688 -4.988281 L 0.851562 -4.398438 C 0.867188 -3.828125 1.09375 -3.160156 1.585938 -2.761719 L 2.667969 -2.761719 L 2.667969 -7.707031 Z "/>
</g>
<g id="glyph-0-4">
<path d="M 11.441406 -9.441406 L 12.054688 -10.054688 C 11.160156 -11.027344 8.851562 -12.332031 5.613281 -12.332031 C 2.667969 -12.332031 1.320312 -11.214844 1.320312 -9.464844 L 1.320312 -8.558594 L -0.292969 -8.558594 L -0.292969 -7.707031 L 1.320312 -7.707031 L 1.320312 0 L 2.320312 0 L 2.320312 -7.707031 L 3.933594 -7.707031 L 3.933594 -8.558594 L 2.320312 -8.558594 L 2.320312 -9.480469 C 2.320312 -10.71875 3.253906 -11.425781 5.613281 -11.425781 C 8.492188 -11.425781 10.492188 -10.386719 11.441406 -9.441406 Z "/>
</g>
<g id="glyph-0-5">
<path d="M -0.292969 -7.707031 L 1.132812 -7.707031 L 1.132812 -4.574219 C 1.132812 -3.132812 2.027344 -2.359375 3.304688 -2.359375 C 4.601562 -2.359375 5.507812 -3.148438 5.507812 -4.574219 L 5.507812 -7.707031 L 7.761719 -7.707031 L 7.761719 0 L 8.761719 0 L 8.761719 -7.707031 L 10.375 -7.707031 L 10.375 -8.558594 L -0.292969 -8.558594 Z M 3.320312 -3.265625 C 2.558594 -3.265625 2.132812 -3.734375 2.132812 -4.601562 L 2.132812 -7.707031 L 4.507812 -7.707031 L 4.507812 -4.601562 C 4.507812 -3.746094 4.09375 -3.265625 3.320312 -3.265625 Z "/>
</g>
<g id="glyph-0-6">
<path d="M 2.453125 0.09375 L 3.253906 -0.507812 C 2.414062 -1.132812 1.71875 -2.066406 1.71875 -3.398438 C 1.71875 -4.386719 2.332031 -4.933594 3.226562 -4.933594 L 5.09375 -4.933594 L 5.09375 0 L 6.09375 0 L 6.09375 -7.707031 L 7.707031 -7.707031 L 7.707031 -8.558594 L -0.292969 -8.558594 L -0.292969 -7.707031 L 5.09375 -7.707031 L 5.09375 -5.839844 L 3.039062 -5.839844 C 1.71875 -5.839844 0.679688 -4.917969 0.679688 -3.414062 C 0.679688 -1.828125 1.507812 -0.625 2.453125 0.09375 Z "/>
</g>
<g id="glyph-0-7">
<path d="M 4.972656 -7.707031 L 6.121094 -7.707031 L 6.121094 -4.746094 C 6.121094 -3.558594 5.28125 -2.464844 3.679688 -2.464844 C 2.546875 -2.464844 2.148438 -3.066406 2.148438 -3.640625 C 2.148438 -4.28125 2.585938 -4.707031 3.535156 -4.707031 L 4.359375 -4.707031 L 4.359375 -5.585938 L 3.492188 -5.585938 C 2.492188 -5.585938 2.066406 -6.039062 2.066406 -6.613281 C 2.066406 -7.132812 2.398438 -7.507812 3.039062 -7.707031 L 2.839844 -8.558594 L -0.292969 -8.558594 L -0.292969 -7.707031 L 1.625 -7.707031 L 1.625 -7.652344 C 1.347656 -7.519531 1 -7.148438 1 -6.558594 C 1 -5.71875 1.585938 -5.253906 2.253906 -5.171875 L 2.253906 -5.121094 C 1.691406 -4.972656 1.09375 -4.464844 1.09375 -3.601562 C 1.09375 -2.558594 1.921875 -1.574219 3.585938 -1.574219 C 4.988281 -1.574219 5.761719 -2.253906 6.054688 -2.640625 L 6.105469 -2.640625 L 6.105469 0 L 7.121094 0 L 7.121094 -7.707031 L 8.71875 -7.707031 L 8.71875 -8.558594 L 4.972656 -8.558594 Z "/>
</g>
<g id="glyph-0-8">
<path d="M -2.148438 -8.375 L -1.398438 -8.507812 L -4.332031 -12.132812 L -5.480469 -11.867188 L -4.386719 -10.613281 C -3.867188 -10.011719 -2.867188 -8.960938 -2.214844 -8.425781 Z "/>
</g>
<g id="glyph-0-9">
<path d="M 2.039062 -3.640625 L 2.054688 -3.679688 C 2.1875 -3.640625 2.398438 -3.625 2.507812 -3.625 C 3.359375 -3.652344 4.121094 -4.148438 4.121094 -5.253906 L 4.121094 -7.707031 L 5.652344 -7.707031 L 5.652344 -8.558594 L -0.292969 -8.558594 L -0.292969 -7.707031 L 3.121094 -7.707031 L 3.121094 -5.347656 C 3.121094 -4.71875 2.8125 -4.464844 2.226562 -4.464844 C 1.613281 -4.464844 1.238281 -4.8125 1 -5.09375 L 0.238281 -4.492188 L 3.691406 0.0390625 L 4.507812 -0.507812 L 2.960938 -2.535156 C 2.601562 -3 2.332031 -3.304688 2.039062 -3.640625 Z "/>
</g>
<g id="glyph-0-10">
<path d="M -4.253906 -10.894531 L -5.265625 -10.414062 C -3.960938 -9.414062 -2.921875 -8.601562 -2 -8.027344 L -1.253906 -8.425781 L -2.320312 -11.878906 L -3.386719 -11.734375 L -1.828125 -8.519531 L -1.933594 -8.480469 Z "/>
</g>
<g id="glyph-0-11">
<path d="M 5.398438 0 L 6.398438 0 L 6.398438 -7.707031 L 8.011719 -7.707031 L 8.011719 -8.558594 L -0.292969 -8.558594 L -0.292969 -7.707031 L 1.574219 -7.707031 L 1.574219 -4.507812 L 0.921875 -4.011719 C 0.933594 -3.441406 1.238281 -2.652344 1.71875 -2.253906 L 2.558594 -2.253906 L 2.558594 -3.613281 L 5.398438 -3.613281 Z M 5.398438 -7.707031 L 5.398438 -4.535156 L 2.574219 -4.535156 L 2.574219 -7.707031 Z "/>
</g>
<g id="glyph-0-12">
<path d="M 2.320312 -7.707031 L 3.933594 -7.707031 L 3.933594 -8.558594 L -0.292969 -8.558594 L -0.292969 -7.707031 L 1.320312 -7.707031 L 1.320312 0 L 2.320312 0 Z "/>
</g>
<g id="glyph-0-13">
<path d="M 3.828125 -0.375 L 3.828125 -0.425781 C 4.933594 -0.453125 6.105469 -1.066406 6.105469 -2.425781 C 6.105469 -3.414062 5.480469 -4 5.09375 -4.1875 L 2.839844 -3.71875 C 2.375 -3.839844 1.988281 -4.292969 1.988281 -4.761719 C 1.988281 -5.1875 2.171875 -5.492188 2.945312 -5.492188 L 5.464844 -5.492188 L 5.464844 -7.707031 L 7.375 -7.707031 L 7.375 -8.558594 L -0.292969 -8.558594 L -0.292969 -7.707031 L 4.480469 -7.707031 L 4.480469 -6.359375 L 2.480469 -6.359375 C 1.519531 -6.359375 0.945312 -5.800781 0.945312 -4.988281 C 0.945312 -3.945312 1.734375 -3.078125 2.679688 -2.785156 L 4.746094 -3.214844 C 4.90625 -3.105469 5.121094 -2.851562 5.121094 -2.414062 C 5.121094 -1.535156 4.238281 -1.132812 3.320312 -1.132812 L 2.867188 -1.132812 L 1.132812 -2.320312 C 0.945312 -2.214844 0.746094 -1.972656 0.746094 -1.625 C 0.746094 -1 1.347656 -0.347656 2.734375 -0.308594 L 4.839844 1.585938 L 5.917969 1.011719 Z "/>
</g>
<g id="glyph-0-14">
<path d="M 7.1875 -5.640625 L 7.132812 -5.640625 C 6.933594 -5.867188 6.53125 -6.078125 6 -6.078125 C 5.332031 -6.078125 4.746094 -5.679688 4.546875 -4.960938 L 4.492188 -4.960938 C 4.292969 -5.601562 3.71875 -6.027344 2.851562 -6.027344 C 1.761719 -6.027344 0.707031 -5.1875 0.707031 -3.613281 C 0.707031 -1.945312 1.785156 -0.601562 3.066406 0.09375 L 3.746094 -0.625 C 2.441406 -1.332031 1.746094 -2.375 1.746094 -3.585938 C 1.746094 -4.652344 2.304688 -5.105469 2.945312 -5.105469 C 3.613281 -5.105469 4.039062 -4.679688 4.039062 -3.8125 L 4.039062 -2.546875 L 5.011719 -2.546875 L 5.011719 -3.8125 C 5.011719 -4.71875 5.464844 -5.160156 6.121094 -5.160156 C 6.574219 -5.160156 6.988281 -4.917969 7.1875 -4.71875 L 7.1875 0 L 8.199219 0 L 8.199219 -7.707031 L 9.800781 -7.707031 L 9.800781 -8.558594 L -0.292969 -8.558594 L -0.292969 -7.707031 L 7.1875 -7.707031 Z "/>
</g>
<g id="glyph-0-15">
<path d="M 5.828125 -3.292969 L 6.441406 -3.945312 C 5.894531 -4.027344 5.585938 -4.347656 5.585938 -4.828125 C 5.585938 -5.292969 5.945312 -5.601562 6.386719 -5.601562 C 6.917969 -5.601562 7.347656 -5.171875 7.347656 -4.386719 C 7.347656 -2.773438 5.878906 -1.453125 4.148438 -1.453125 C 2.90625 -1.453125 2.253906 -2.121094 2.253906 -2.933594 C 2.253906 -3.691406 2.773438 -4.171875 3.667969 -4.1875 L 3.972656 -4.1875 L 3.972656 -5.078125 L 3.480469 -5.078125 C 2.585938 -5.078125 2.078125 -5.585938 2.078125 -6.332031 C 2.078125 -7.160156 2.691406 -7.707031 3.585938 -7.707031 L 6.121094 -7.707031 L 6.121094 -6.453125 C 5.214844 -6.347656 4.613281 -5.640625 4.613281 -4.828125 C 4.613281 -4.054688 5.105469 -3.464844 5.828125 -3.292969 Z M 4.121094 -0.546875 C 6.625 -0.546875 8.320312 -2.507812 8.320312 -4.386719 C 8.320312 -5.320312 7.839844 -6.066406 7.078125 -6.347656 L 7.078125 -7.707031 L 9.332031 -7.707031 L 9.332031 -8.558594 L -0.292969 -8.558594 L -0.292969 -7.707031 L 1.679688 -7.707031 L 1.679688 -7.652344 C 1.464844 -7.480469 1.011719 -7.09375 1.011719 -6.265625 C 1.011719 -5.480469 1.519531 -4.839844 2.320312 -4.640625 L 2.320312 -4.585938 C 1.761719 -4.375 1.199219 -3.839844 1.199219 -2.90625 C 1.199219 -1.667969 2.238281 -0.546875 4.121094 -0.546875 Z "/>
</g>
<g id="glyph-1-0">
<path d="M 1.542969 -9.5625 L 2.863281 -9.5625 L 2.863281 -6.417969 L 2.546875 -2.277344 L 1.882812 -2.277344 L 1.542969 -6.417969 Z M 1.542969 -1.355469 L 2.839844 -1.355469 L 2.839844 0 L 1.542969 0 Z "/>
</g>
</g>
<image id="source-13" x="0" y="0" width="0" height="0"/>
<mask id="mask-0">
<use xlink:href="#source-13"/>
</mask>
</defs>
<g fill="rgb(100%, 100%, 100%)" fill-opacity="1">
<use xlink:href="#glyph-0-0" x="30" y="34"/>
<use xlink:href="#glyph-0-1" x="38" y="34"/>
<use xlink:href="#glyph-0-2" x="42" y="34"/>
<use xlink:href="#glyph-0-3" x="46" y="34"/>
<use xlink:href="#glyph-0-4" x="53" y="34"/>
<use xlink:href="#glyph-0-5" x="57" y="34"/>
<use xlink:href="#glyph-0-6" x="67" y="34"/>
<use xlink:href="#glyph-0-2" x="74" y="34"/>
<use xlink:href="#glyph-0-7" x="78" y="34"/>
<use xlink:href="#glyph-0-8" x="86" y="34"/>
<use xlink:href="#glyph-0-9" x="86" y="34"/>
<use xlink:href="#glyph-0-10" x="91" y="34"/>
<use xlink:href="#glyph-0-2" x="91" y="34"/>
<use xlink:href="#glyph-0-9" x="95" y="34"/>
<use xlink:href="#glyph-0-11" x="100" y="34"/>
<use xlink:href="#glyph-0-12" x="108" y="34"/>
<use xlink:href="#glyph-0-13" x="112" y="34"/>
<use xlink:href="#glyph-0-14" x="119" y="34"/>
<use xlink:href="#glyph-0-1" x="129" y="34"/>
<use xlink:href="#glyph-0-2" x="133" y="34"/>
<use xlink:href="#glyph-0-15" x="137" y="34"/>
</g>
<g fill="rgb(100%, 100%, 100%)" fill-opacity="1">
<use xlink:href="#glyph-1-0" x="146" y="34"/>
</g>
</svg>
